<svg xmlns="http://www.w3.org/2000/svg" viewBox="0 0 185.37 123.43">
    <defs>
        <style>
            .cls-1{fill:#d1bd93;}
            .cls-2{fill:#6d4600;}
            .cls-3{fill:#a0702a;}
            .cls-4{fill:#ff9d00;}
        </style>
    </defs>
    <title>Logo</title>
    <g id="Layer_1" data-name="Layer 1">
        <path class="cls-1" d="M50.13,84.89v56.58a109.87,109.87,0,0,0,100,0V84.89" transform="translate(-7.91 -30.15)"/>
    </g>
    <g id="Layer_2" data-name="Layer 2">
        <path class="cls-2" d="M193.28,73.72A257.18,257.18,0,0,1,101.36,91,257.24,257.24,0,0,1,7.91,73.72l92.37-43.57h.63Z" transform="translate(-7.91 -30.15)"/>
    </g>
    <g id="Layer_6" data-name="Layer 6">
        <path class="cls-2" d="M88.72,152.65c4.7.46,8.81.72,12.22.85a40.42,40.42,0,0,0,9.57-.5c.71-.13,1.3-.25,1.7-.35a66.78,66.78,0,0,0,0-20.1c-.62-4-1.4-6.29-3.2-8.12-3.08-3.11-7.36-2.93-8.83-2.79h.57c-1.47-.14-5.75-.32-8.83,2.79-1.81,1.83-2.58,4.17-3.2,8.12A66.78,66.78,0,0,0,88.72,152.65Z" transform="translate(-7.91 -30.15)"/>
    </g>
    <g id="Layer_4" data-name="Layer 4">
        <path class="cls-3" d="M119.12,119.2a75.51,75.51,0,0,0-.56-12,4,4,0,0,1,0-1.4c.59-3.07,4.65-5.33,8.17-5.56a7.55,7.55,0,0,1,5.26,1.36,6.59,6.59,0,0,1,.84.83c2.28,2.77,1.58,12.73,1.51,13.7" transform="translate(-7.91 -30.15)"/>
        <path class="cls-4" d="M119.06,117.7a67.65,67.65,0,0,0-.51-10.93,3.56,3.56,0,0,1,0-1.28c.54-2.8,4.22-4.86,7.41-5.06a6.82,6.82,0,0,1,4.76,1.23,5.81,5.81,0,0,1,.76.76c2.07,2.53,1.44,11.59,1.37,12.47" transform="translate(-7.91 -30.15)"/>
        <path class="cls-3" d="M79.87,119.2a74.28,74.28,0,0,1,.56-12,4,4,0,0,0,0-1.4c-.6-3.07-4.65-5.33-8.17-5.56A7.55,7.55,0,0,0,67,101.59a6.59,6.59,0,0,0-.84.83c-2.28,2.77-1.58,12.73-1.51,13.7" transform="translate(-7.91 -30.15)"/>
        <path class="cls-4" d="M79.92,117.7a68.49,68.49,0,0,1,.52-10.93,3.56,3.56,0,0,0,0-1.28c-.54-2.8-4.22-4.86-7.41-5.06a6.81,6.81,0,0,0-4.76,1.23,5.81,5.81,0,0,0-.76.76C65.43,105,66.07,114,66.14,114.89" transform="translate(-7.91 -30.15)"/>
    </g>
</svg>